<svg xmlns="http://www.w3.org/2000/svg" viewBox="0 0 256 109.2"><defs><style>.cls-1{fill:#fff;}.cls-2,.cls-4,.cls-5{fill:#792015;}.cls-3,.cls-6{fill:none;stroke-width:3px;}.cls-3{stroke:#b13c2e;}.cls-4{font-size:26px;}.cls-4,.cls-5{font-family:Arial-Black, Arial;font-weight:800;}.cls-5{font-size:37px;}.cls-6{stroke:#949597;}</style></defs><title>logoAsset 1</title><g id="Layer_2" data-name="Layer 2"><g id="Layer_1-2" data-name="Layer 1"><path class="cls-1" d="M46,107.7a44.5,44.5,0,0,1,0-89H85V4.2h85V18.7h40a44.5,44.5,0,0,1,0,89Z"/><path class="cls-2" d="M168.5,5.7V20.2H210a43,43,0,0,1,0,86H46a43,43,0,0,1,0-86H86.5V5.7h82m3-3h-88V17.2H46a46,46,0,0,0-46,46H0a46,46,0,0,0,46,46H210a46,46,0,0,0,46-46h0a46,46,0,0,0-46-46H171.5V2.7Z"/><path class="cls-3" d="M86.5,24.7H45.22A37.72,37.72,0,0,0,7.5,62.42V64A37.72,37.72,0,0,0,45.22,101.7H210.78A37.72,37.72,0,0,0,248.5,64V62.42A37.72,37.72,0,0,0,210.78,24.7H168.5"/><text class="cls-4" transform="translate(30.24 72.87)">Niemen Glass</text><text class="cls-5" transform="translate(91.61 31.74)">ngc</text><path class="cls-6" d="M211.5,30.7h-41v12h-86v-12h-40a32,32,0,0,0-32,32h0a32,32,0,0,0,32,32h167a32,32,0,0,0,32-32h0A32,32,0,0,0,211.5,30.7Z"/></g></g></svg>